<svg viewBox="0 0 360 682"
    xmlns="http://www.w3.org/2000/svg">
    <g opacity="1" id="OwlDeadDizziness">
        <path id="OwlDeadDizzinessLineFirst" d="M63.06 29C75.53 25.71 88.85 23.8 101.65 22.21C114.65 20.98 127.65 19.11 140.73 19.21C149.485 19.3067 158.216 20.143 166.83 21.71C166.896 21.7273 166.955 21.7661 166.997 21.8204C167.039 21.8747 167.062 21.9414 167.062 22.01C167.062 22.0786 167.039 22.1453 166.997 22.1996C166.955 22.2539 166.896 22.2927 166.83 22.31C162.48 23.17 158.15 23.69 153.83 24.11C143.069 25.2944 132.243 25.7755 121.42 25.55C110.78 25.64 99.66 26.21 89.02 26.89C80.38 27.46 71.75 28.25 63.19 29.57C63.1505 29.5771 63.1101 29.5763 63.0709 29.5675C63.0318 29.5587 62.9948 29.5422 62.9622 29.5189C62.9296 29.4956 62.9019 29.466 62.881 29.4318C62.86 29.3977 62.846 29.3596 62.84 29.32C62.8276 29.2461 62.8433 29.1702 62.884 29.1073C62.9247 29.0444 62.9875 28.9989 63.06 28.98V29Z" fill="#B28870"/>
        <path id="OwlDeadDizzinessLineSecond" d="M1.05 47.81C-0.8 49.42 5.34 51.16 6.42 51.49C22.42 55.57 39.17 56.49 55.52 58.16C63.68 58.82 72.04 58.84 80.22 58.71C96.828 58.6033 113.429 59.4481 129.94 61.24C129.98 61.2437 130.02 61.2555 130.055 61.2748C130.091 61.2941 130.123 61.3204 130.148 61.3522C130.173 61.384 130.192 61.4206 130.202 61.4597C130.213 61.4989 130.216 61.5398 130.21 61.58C130.203 61.6432 130.176 61.7024 130.132 61.7492C130.089 61.7959 130.032 61.8277 129.97 61.84C124.479 62.8516 118.937 63.5726 113.37 64C85.68 66.55 57.65 63.63 30.37 58.65C25.39 57.55 0.13 53.39 0 48.34C0 47.89 0.82 46.89 1.17 47.34C1.20948 47.4117 1.21902 47.4961 1.19654 47.5747C1.17406 47.6534 1.12138 47.72 1.05 47.76V47.81Z" fill="#B28870"/>
        <path id="OwlDeadDizzinessLineThird" d="M227.51 60C252.36 59.31 340.51 57.57 355.23 41C355.48 40.67 355.33 40.83 355.32 40.93C355.27 41.2 355.32 41.18 355.14 40.93C354.81 40.582 354.441 40.2732 354.04 40.01C349.46 37.24 343.88 36.14 338.65 34.95C327.52 32.73 316.12 31.52 304.81 30.34C288.32 28.62 270.03 27.02 253.42 25.57C207.84 21.79 206.87 21.31 253.63 21.36C276.72 21.74 299.83 22.84 322.68 26.36C331.46 28.03 354.68 31.22 359.37 38.73C361.24 41.97 358.58 44.62 356.22 46.46C342.57 55.92 313.28 57.76 296.56 59.26C273.56 60.78 250.56 61.15 227.51 60.63C227.43 60.63 227.354 60.5984 227.298 60.5421C227.242 60.4859 227.21 60.4096 227.21 60.33C227.215 60.252 227.248 60.1784 227.303 60.1231C227.358 60.0679 227.432 60.0348 227.51 60.03V60Z" fill="#B28870"/>
        <path id="OwlDeadDizzinessStartFirst" d="M187.39 10.07L189.87 0L194.98 10.91L204.31 11.46L197.39 16.5L200.48 25.73L192.16 19.57L182.49 26.66L185.17 14.54L176.91 8.95L187.39 10.07Z" fill="#FFCA00"/>
        <path id="OwlDeadDizzinessStartSecond" d="M172.9 57.09L176.11 49.22L180.29 57.57L188.03 58.52L182.3 62.58L184.59 70.7L178.18 65.45L169.46 71.41L172.22 61.36L165.8 56.62L172.9 57.09Z" fill="#FFCA00"/>
        <path id="OwlDeadDizzinessStartThird" d="M22.38 25.95L26.14 16.14L30.71 25.95L41.18 27.35L32.86 32.94L36.62 42.45L28.29 35.74L17.82 42.45L21.31 30.99L13.52 25.67L22.38 25.95Z" fill="#FFCA00"/>
    </g>

    <g opacity="1" id="OwlDeadTail">
        <path d="M84.6 528.3L79.84 576L67.9 629.58C67.9 629.58 63.29 645.58 94.2 652.58L108.2 657.68L121.2 654.01L121.46 671.34L125.85 676.92L134.4 680.48H218.78L229.44 676.42L233.19 671.19L233.41 657.85L239.57 660.91L247.7 661.23L277.7 649.4L284.11 643.25L286.89 633L279.49 599.51L273.62 565.22L270.18 532.22L84.6 528.3Z" fill="#725514"/>
        <path d="M81.75 647.61L104.39 650.51C108.385 651.029 112.437 650.171 115.88 648.079C119.323 645.987 121.95 642.785 123.33 639L133.81 606.77L130.72 637L125 650.22L116.31 656.69H105.46L81.75 647.61Z" fill="#8E681C"/>
        <path d="M272 650.8L249.36 653.71C245.359 654.224 241.303 653.358 237.86 651.257C234.416 649.155 231.792 645.943 230.42 642.15L220 609.92L225 639.69L228.82 653.41L237.51 659.89H248.3L272 650.8Z" fill="#8E681C"/>
        <path d="M128.61 642.64C128.61 642.64 124.55 666.42 128.4 671.14C134.94 679.14 173.29 679.14 173.29 679.14L134.46 680.5L124.16 675.5L121.26 668.5V654L128.61 642.64Z" fill="#4F3810"/>
        <path d="M226.53 646.75C226.53 646.75 230.6 667.95 226.75 672.16C220.21 679.29 181.86 679.29 181.86 679.29L220.69 680.5L230.99 676.07L233.89 669.82V656.91L226.53 646.75Z" fill="#4F3810"/>
        <path d="M83.55 540C83.55 540 90.31 545.93 107.78 552.2C116.303 555.167 124.983 557.664 133.78 559.68L139.39 552.68L102.69 540.51L84.54 528.87L83.55 540Z" fill="#4F3810"/>
        <path d="M271.33 541.64C263.543 546.157 255.446 550.117 247.1 553.49C236.77 557.65 221.1 561.4 221.1 561.4L215.49 554.4L252.19 542.22L270.37 530.63L271.33 541.64Z" fill="#4F3810"/>
        <path d="M81.09 612.32C79.892 614.497 78.8268 616.744 77.9 619.05C76.9878 622.103 76.4571 625.257 76.32 628.44C76.17 630.24 76.23 632.44 77.82 633.33C79.41 634.22 81.71 632.68 82.29 630.82C82.87 628.96 82.46 626.94 82.46 624.99C82.46 620.86 84.24 616.99 85.59 613.09C86.39 610.79 91.01 594.55 87.59 594.55C84.17 594.55 82.31 609.84 81.09 612.32Z" fill="#8E681C"/>
        <path d="M97.7 593.65C97.4 600.02 95.54 606.19 94.2 612.43C94.032 613.695 93.4926 614.882 92.65 615.84C92.216 616.3 91.623 616.578 90.9915 616.617C90.36 616.656 89.7373 616.454 89.25 616.05C88.44 615.19 88.63 613.83 89.01 612.72C89.39 611.61 89.84 610.67 90.26 609.66C90.89 608.14 91.43 606.59 91.91 605.03C92.8185 602.076 93.5531 599.07 94.11 596.03C94.42 594.31 94.68 591.79 95.86 591.57C97.7 591.28 97.72 593.14 97.7 593.65Z" fill="#8E681C"/>
        <path d="M110.39 659.19C107.91 659.192 105.453 658.721 103.15 657.8L78.62 648C74.2239 646.227 70.6219 642.916 68.4843 638.685C66.3468 634.454 65.8193 629.591 67 625C81 570.62 83.07 528.66 83.09 528.24C83.1086 527.842 83.2844 527.468 83.5788 527.2C83.7246 527.067 83.8951 526.964 84.0806 526.897C84.2661 526.83 84.463 526.801 84.66 526.81C84.857 526.819 85.0502 526.867 85.2287 526.951C85.4072 527.035 85.5674 527.153 85.7002 527.299C85.8329 527.445 85.9357 527.615 86.0026 527.801C86.0695 527.986 86.0992 528.183 86.09 528.38C86.09 528.8 83.97 571.04 69.9 625.74C68.9044 629.623 69.351 633.735 71.1568 637.313C72.9627 640.892 76.0052 643.694 79.72 645.2L104.26 655C106.415 655.855 108.726 656.246 111.042 656.148C113.358 656.05 115.628 655.466 117.703 654.433C119.778 653.4 121.613 651.942 123.087 650.153C124.562 648.364 125.643 646.284 126.26 644.05C129.612 631.406 132.127 618.555 133.79 605.58C133.843 605.182 134.052 604.822 134.371 604.578C134.69 604.334 135.092 604.227 135.49 604.28C135.888 604.333 136.248 604.542 136.492 604.861C136.736 605.18 136.843 605.582 136.79 605.98C135.113 619.09 132.574 632.074 129.19 644.85C128.455 647.505 127.167 649.976 125.411 652.099C123.655 654.222 121.47 655.95 119 657.17C116.324 658.499 113.377 659.19 110.39 659.19V659.19Z" fill="black"/>
        <path d="M244.4 663.07C240.131 663.068 235.981 661.667 232.585 659.08C229.189 656.494 226.736 652.865 225.6 648.75C222.219 635.974 219.68 622.989 218 609.88C217.946 609.482 218.052 609.079 218.294 608.759C218.537 608.44 218.897 608.229 219.295 608.175C219.693 608.121 220.096 608.226 220.416 608.469C220.735 608.712 220.946 609.072 221 609.47C222.648 622.463 225.147 635.334 228.48 648C229.097 650.234 230.178 652.314 231.653 654.102C233.127 655.891 234.962 657.349 237.038 658.381C239.113 659.413 241.383 659.997 243.699 660.093C246.015 660.189 248.326 659.796 250.48 658.94L275.01 649.12C278.725 647.614 281.767 644.812 283.573 641.233C285.379 637.655 285.826 633.543 284.83 629.66C270.75 574.96 268.66 532.72 268.64 532.3C268.621 531.902 268.762 531.513 269.03 531.219C269.298 530.924 269.672 530.749 270.07 530.73C270.468 530.711 270.857 530.852 271.151 531.12C271.446 531.388 271.621 531.762 271.64 532.16C271.64 532.57 273.75 574.53 287.74 628.92C288.919 633.51 288.392 638.371 286.257 642.601C284.121 646.832 280.523 650.143 276.13 651.92L251.61 661.74C249.313 662.639 246.866 663.09 244.4 663.07V663.07Z" fill="black"/>
        <path d="M215.86 682H138.86C128.14 682 119.75 676.49 119.75 669.46V654C119.75 653.602 119.908 653.221 120.189 652.939C120.471 652.658 120.852 652.5 121.25 652.5C121.648 652.5 122.029 652.658 122.311 652.939C122.592 653.221 122.75 653.602 122.75 654V669.43C122.75 674.6 130.12 678.97 138.86 678.97H215.86C224.59 678.97 231.97 674.6 231.97 669.43V657.87C231.97 657.472 232.128 657.091 232.409 656.809C232.691 656.528 233.072 656.37 233.47 656.37C233.868 656.37 234.249 656.528 234.531 656.809C234.812 657.091 234.97 657.472 234.97 657.87V669.46C235 676.49 226.58 682 215.86 682Z" fill="black"/>
    </g>

    <g opacity="1" id="OwlDeadBody">
        <path d="M327.51 145.67L348.89 145.78L321.75 180.78C328.445 198.072 331.867 216.457 331.84 235C331.84 246.55 329.68 256.61 327.22 267.4C346.672 298.746 357.056 334.869 357.22 371.76C357.22 475.07 278.56 558.76 181.53 558.76C84.5 558.76 5.82 475.07 5.82 371.76C5.70535 335.311 15.8148 299.561 35 268.57C28.109 238.372 30.6822 206.785 42.37 178.1L17.37 145.78L38.7 145.67L28 129.11L74.3 129.71C74.3 129.71 115.39 80.85 194.35 84.76C194.35 84.76 246.96 87.43 288.09 129.05L337.81 129.74L327.51 145.67Z" fill="#FBBB10"/>
        <path opacity="0.6" d="M30.63 279.81C30.63 279.81 45.58 320.1 93 336C93 336 29.55 301.18 29.55 234.58L30.74 254.29L33.46 269.92L30.63 279.81Z" fill="#D89A0F"/>
        <path opacity="0.6" d="M59.88 490.23C59.88 490.23 98.94 539.93 173.12 540.23C262.76 540.58 299.85 489.53 299.85 489.53L306.49 501C306.49 501 257.17 561.88 170.37 557.41C95.32 553.22 52.91 500.35 52.91 500.35L59.88 490.23Z" fill="#D89A0F"/>
        <path d="M216.79 106.19C219.766 106.394 222.695 107.042 225.48 108.11C226.717 108.498 227.926 108.969 229.1 109.52C231.228 110.575 233.096 112.088 234.57 113.95C234.94 114.367 235.21 114.863 235.36 115.4C235.432 115.669 235.426 115.953 235.342 116.218C235.259 116.484 235.102 116.72 234.89 116.9C234.604 117.079 234.277 117.182 233.94 117.2C230.94 117.57 227.94 116.41 224.94 116.85C223.51 117.06 221.94 117.62 220.68 116.99C219.997 116.603 219.419 116.054 219 115.39C217.4 113.26 215.82 110.9 213.37 109.83C212.867 109.658 212.395 109.408 211.97 109.09C211.59 108.72 211.27 107.86 212.97 106.82C214.202 106.409 215.491 106.196 216.79 106.19Z" fill="#FFCD5C"/>
        <path opacity="0.6" d="M329 279.81C329 279.81 314 320.1 266.64 336C266.64 336 330.1 301.18 330.1 234.58L328.91 254.29L326.19 269.92L329 279.81Z" fill="#D89A0F"/>
        <path d="M88 129.18C88 129.18 120.28 96.74 171.77 95.08C232.71 93.08 273.17 129.18 273.17 129.18H287.26C287.26 129.18 240.48 78.18 169.86 84.54C169.86 84.54 109.5 85.54 74.28 129.71L88 129.18Z" fill="#FFCD5C"/>
        <path opacity="0.6" d="M56.78 354.16C63.34 348.39 71.92 345.4 80.43 344.16C73.28 347.02 66.43 351.31 61.71 357.48C61.593 357.631 61.4893 357.791 61.4 357.96L56.78 354.13V354.16Z" fill="#D89A0F"/>
        <path opacity="0.6" d="M297.89 359.47C293.89 353.85 287.89 349.81 281.7 346.88C280.77 346.45 279.81 346.08 278.85 345.67C283.035 346.224 287.138 347.282 291.07 348.82C295.246 350.414 299.114 352.722 302.5 355.64L297.89 359.47Z" fill="#D89A0F"/>
        <path d="M270 436.11C270 488 241 526 180 526C120.76 526 90 488 90 436.16C90 384.32 114 342 180 342.18C248.11 342.32 270 384.24 270 436.11Z" fill="#FFD685"/>
        <path d="M180 559.74C82.29 559.74 2.8 475.16 2.8 371.2C2.68051 334.684 12.7402 298.857 31.85 267.74C25.1196 237.696 27.6508 206.317 39.11 177.74L14.61 146.11C14.4381 145.889 14.3316 145.623 14.3027 145.345C14.2738 145.066 14.3236 144.785 14.4465 144.533C14.5693 144.281 14.7603 144.068 14.9978 143.919C15.2353 143.77 15.5097 143.691 15.79 143.69L59.2 143.47C59.5978 143.47 59.9794 143.628 60.2607 143.909C60.542 144.191 60.7 144.572 60.7 144.97C60.7 145.368 60.542 145.749 60.2607 146.031C59.9794 146.312 59.5978 146.47 59.2 146.47L18.83 146.67L42 176.62C42.1606 176.827 42.2637 177.073 42.2988 177.333C42.3339 177.593 42.2998 177.858 42.2 178.1C30.6291 206.503 28.0804 237.779 34.9 267.68C34.9442 267.87 34.9502 268.067 34.9176 268.259C34.8849 268.451 34.8144 268.635 34.71 268.8C15.6921 299.56 5.67662 335.036 5.8 371.2C5.8 473.51 83.94 556.74 180 556.74C276.06 556.74 354.18 473.51 354.18 371.2C354.302 335.036 344.286 299.561 325.27 268.8C325.166 268.635 325.095 268.451 325.062 268.259C325.03 268.067 325.036 267.87 325.08 267.68C331.681 238.74 329.509 208.49 318.84 180.79C318.747 180.549 318.718 180.288 318.755 180.033C318.791 179.777 318.893 179.535 319.05 179.33L344.33 146.7L300.76 146.48C300.362 146.48 299.981 146.322 299.699 146.041C299.418 145.759 299.26 145.378 299.26 144.98C299.26 144.582 299.418 144.201 299.699 143.919C299.981 143.638 300.362 143.48 300.76 143.48V143.48L347.36 143.72C347.641 143.719 347.917 143.797 348.155 143.946C348.394 144.095 348.585 144.308 348.707 144.561C348.83 144.814 348.878 145.097 348.847 145.376C348.815 145.656 348.705 145.92 348.53 146.14L321.94 180.5C332.483 208.351 334.635 238.68 328.13 267.74C347.243 298.856 357.303 334.683 357.18 371.2C357.18 475.16 277.69 559.74 180 559.74Z" fill="black"/>
        <path d="M287.25 130.68C287.051 130.68 286.853 130.64 286.67 130.563C286.486 130.485 286.32 130.372 286.18 130.23C272.324 116.134 255.8 104.938 237.572 97.2949C219.344 89.6523 199.776 85.7161 180.01 85.7161C160.244 85.7161 140.676 89.6523 122.448 97.2949C104.22 104.938 87.6956 116.134 73.84 130.23C73.5583 130.498 73.1833 130.646 72.7944 130.644C72.4054 130.641 72.0327 130.487 71.7551 130.214C71.4775 129.942 71.3165 129.572 71.3062 129.183C71.296 128.794 71.4371 128.417 71.7 128.13C85.8341 113.748 102.691 102.325 121.287 94.5277C139.883 86.7303 159.845 82.7144 180.01 82.7144C200.175 82.7144 220.137 86.7303 238.733 94.5277C257.329 102.325 274.186 113.748 288.32 128.13C288.601 128.411 288.759 128.792 288.759 129.19C288.759 129.587 288.601 129.969 288.32 130.25C288.034 130.528 287.649 130.683 287.25 130.68V130.68Z" fill="black"/>
    </g>

    <g opacity="1" id="OwlDeadEyes">
        <path opacity="0.6" d="M306.39 222.92C306.39 266.19 272.53 301.28 230.76 301.28C188.99 301.28 155.12 266.19 155.12 222.92C199.29 234.58 204.63 192.17 222.98 149.25C264.75 149.25 306.39 179.64 306.39 222.92Z" fill="#D89A0F"/>
        <path opacity="0.6" d="M59.09 222.92C59.09 266.19 92.95 301.28 134.72 301.28C176.49 301.28 210.36 266.19 210.36 222.92C166.19 234.58 159.66 195.92 141.31 153.04C99.54 153 59.09 179.64 59.09 222.92Z" fill="#D89A0F"/>
        <path d="M300.49 219.45C300.49 259.28 268.76 291.57 229.62 291.57C220.848 291.578 212.155 289.922 204 286.69C206.937 282.852 209.32 278.621 211.08 274.12L181.58 252.4L152.09 274.12C153.853 278.621 156.24 282.853 159.18 286.69C151.022 289.922 142.325 291.578 133.55 291.57C94.4 291.57 62.67 259.28 62.67 219.45C62.67 181.21 91.67 153.36 128.67 150.94C154.17 162.24 174.09 181.78 181.59 207.41C189.09 181.78 210.1 162.24 235.59 150.94C272.59 153.35 300.49 181.2 300.49 219.45Z" fill="white"/>
        <path opacity="0.38" d="M21.31 150.94H83.77C83.77 150.94 123.7 150.39 144.61 165.71C173.46 186.87 181.61 207.41 181.61 207.41C181.61 207.41 194.37 182.41 214.55 169.41C244.55 150.01 276.28 150.98 276.28 150.98H342.97L346.97 145.81L259.75 145C259.75 145 207.75 146.49 182.31 204.53C182.31 204.53 174.31 188.68 170.22 184.45C147.7 160.97 142.08 139.83 39.22 145.36L14.47 145L21.31 150.94Z" fill="white"/>
    </g>

    <g opacity="1" id="OwlDeadLeftEyebrow">
        <path d="M37.15 145.11L26.47 128.55L125.94 130.24L143.37 138.1L156.08 149.57C156.08 149.57 163.03 155.79 174.84 190.9C174.84 190.9 146.91 145.68 100.32 144.98L37.15 145.11Z" fill="#725514"/>
        <path d="M33.73 139.81H97.3C108.124 139.811 118.836 142.011 128.783 146.278C138.731 150.545 147.709 156.788 155.17 164.63L170.22 184.43C170.22 184.43 139.15 142 88.29 144.82L37.15 145.11L33.73 139.81Z" fill="#4F3912"/>
        <path d="M181.58 208.91C181.28 208.909 180.987 208.818 180.739 208.648C180.491 208.479 180.3 208.239 180.19 207.96L179 205.07C163.74 168.01 134.8 155.84 134.5 155.71H134.39C122.129 149.566 108.604 146.365 94.89 146.36H94.47L59.17 146.54C58.7722 146.54 58.3906 146.382 58.1093 146.101C57.828 145.819 57.67 145.438 57.67 145.04C57.67 144.642 57.828 144.261 58.1093 143.979C58.3906 143.698 58.7722 143.54 59.17 143.54L94.47 143.36H94.9C109.065 143.365 123.034 146.669 135.7 153.01C136.95 153.54 155.07 161.55 170.27 183.01L163.27 165.33C159.679 155.642 153.26 147.258 144.845 141.263C136.431 135.268 126.409 131.94 116.08 131.71L29.25 130.1L38.41 144.3C38.6003 144.634 38.6554 145.028 38.5639 145.401C38.4724 145.774 38.2413 146.097 37.9182 146.305C37.5951 146.513 37.2047 146.589 36.8273 146.517C36.45 146.445 36.1145 146.232 35.89 145.92L25.21 129.36C25.0621 129.132 24.9793 128.868 24.9705 128.597C24.9617 128.326 25.0272 128.057 25.16 127.82C25.2841 127.575 25.4771 127.372 25.7151 127.235C25.9531 127.098 26.2259 127.034 26.5 127.05L116.17 128.66C127.097 128.897 137.701 132.412 146.606 138.749C155.511 145.086 162.306 153.953 166.11 164.2L181.82 204C182.22 205 182.61 205.94 182.98 206.93C183.051 207.113 183.085 207.308 183.08 207.505C183.075 207.701 183.031 207.894 182.951 208.074C182.871 208.253 182.757 208.415 182.614 208.55C182.471 208.685 182.304 208.79 182.12 208.86C181.945 208.911 181.762 208.928 181.58 208.91V208.91Z" fill="black"/>
    </g>

    <g opacity="1" id="OwlDeadRightEyebrow">
        <path d="M188.46 190.9L200.69 158.6C200.69 158.6 212.49 131.36 246.21 130.52L336.28 129.18L326 145.11L263.7 144.82C263.7 144.82 219.79 143.44 188.46 190.9Z" fill="#725514"/>
        <path d="M330.1 139.81H266.53C255.707 139.811 244.997 142.011 235.051 146.278C225.105 150.544 216.129 156.788 208.67 164.63L193 184.43C193 184.43 224.65 141.99 275.51 144.82L326.65 145.11L330.1 139.81Z" fill="#4F3912"/>
        <path d="M181.58 208.91C181.395 208.911 181.212 208.877 181.04 208.81C180.671 208.667 180.374 208.384 180.213 208.022C180.051 207.661 180.04 207.25 180.18 206.88C180.46 206.16 180.74 205.46 181.02 204.76L197.02 164.17C200.828 153.921 207.63 145.053 216.543 138.721C225.456 132.388 236.068 128.882 247 128.66L336.67 127.05C336.942 127.045 337.209 127.114 337.445 127.249C337.681 127.384 337.875 127.581 338.007 127.818C338.14 128.056 338.205 128.324 338.197 128.596C338.189 128.867 338.107 129.131 337.96 129.36L327.28 145.92C327.179 146.097 327.043 146.251 326.881 146.374C326.718 146.497 326.532 146.585 326.334 146.634C326.137 146.682 325.931 146.69 325.73 146.656C325.529 146.623 325.337 146.549 325.166 146.439C324.995 146.328 324.848 146.185 324.734 146.016C324.62 145.847 324.541 145.657 324.503 145.457C324.465 145.256 324.469 145.051 324.513 144.852C324.557 144.653 324.641 144.465 324.76 144.3L333.92 130.1L247 131.65C236.678 131.878 226.663 135.201 218.253 141.188C209.842 147.176 203.424 155.552 199.83 165.23L192.71 183.23C208 161.63 226.21 153.49 227.42 153C240.09 146.658 254.062 143.354 268.23 143.35H268.66L300.78 143.51C301.178 143.51 301.559 143.668 301.841 143.949C302.122 144.231 302.28 144.612 302.28 145.01C302.28 145.408 302.122 145.789 301.841 146.071C301.559 146.352 301.178 146.51 300.78 146.51L268.66 146.35H268.25C254.533 146.357 241.005 149.558 228.74 155.7H228.64C228.34 155.83 199.11 168.31 183.82 205.86L183 208C182.881 208.276 182.682 208.51 182.429 208.672C182.176 208.834 181.88 208.917 181.58 208.91V208.91Z" fill="black"/>
    </g>

    <g opacity="1" id="OwlDeadBeak">
        <path d="M152.09 274.12L181.58 252.4L211.07 274.12L197.55 296.12L182.06 310.69L164.53 294.44L152.09 274.12Z" fill="#725514"/>
        <path d="M181.51 259.57V304.4C176.496 299.711 171.818 294.675 167.51 289.33C164.305 285.213 161.452 280.834 158.98 276.24L181.51 259.57Z" fill="#936F2E"/>
        <path d="M181.51 312.42C181.171 312.42 180.843 312.304 180.58 312.09C180.04 311.67 167.42 301.56 158.36 288.55C155.39 284.439 152.998 279.941 151.25 275.18C151.146 274.885 151.138 274.566 151.226 274.266C151.314 273.966 151.494 273.702 151.74 273.51L180.59 251C180.853 250.796 181.177 250.685 181.51 250.685C181.843 250.685 182.167 250.796 182.43 251L211.28 273.47C211.526 273.662 211.706 273.926 211.794 274.226C211.882 274.526 211.874 274.845 211.77 275.14C210.02 279.9 207.628 284.398 204.66 288.51C195.6 301.51 182.98 311.63 182.44 312.05C182.183 312.278 181.854 312.409 181.51 312.42V312.42ZM154.44 275.2C156.086 279.325 158.228 283.234 160.82 286.84C168.23 297.48 178.41 306.38 181.51 308.98C184.61 306.38 194.79 297.48 202.2 286.84C204.79 283.233 206.932 279.324 208.58 275.2L181.51 254.12L154.44 275.2Z" fill="#725514"/>
    </g>

    <g opacity="1" id="OwlDeadLeftWing">
        <path d="M52.91 500.36C52.91 500.36 81.5 464.09 79.76 418.06C78.08 373.41 51.66 355.72 35.25 305.37C31.7022 294.382 30.4729 282.777 31.64 271.29C31.64 271.29 -41.53 390.64 52.91 500.36Z" fill="#725514"/>
        <path d="M33.89 448.27C33.89 448.27 21.38 437.09 20.68 415.94C20.12 398.81 24.58 390.8 24.58 390.8L17.38 400.12L11.26 420L18.42 446L30.51 469L33.89 448.27Z" fill="#4F3810"/>
        <path d="M17.38 400.12C17.38 400.12 9.98999 387.12 11.26 372.77C11.9888 364.603 13.6668 356.549 16.26 348.77C16.26 348.77 9.25999 352.28 5.74999 368.33L4.67999 376.3L6.67999 399.95L11.68 418.86L17.38 400.12Z" fill="#4F3810"/>
        <path d="M14.51 349.8C14.51 349.8 14.44 318.48 32.22 288.22C32.57 280.22 30.03 276.36 32.22 271.46L23.15 287.69L11.26 320.31L6.06 347.39L4 368.75L8.61 359L14.51 349.8Z" fill="#4F3810"/>
        <path d="M56.1 497.47C60.1954 488.326 63.3419 478.786 65.49 469C71.67 439.51 71.35 422.41 68.58 406.51C63.81 379.12 44.33 356.55 36 324.18C29.79 300.03 32.53 289.92 32.53 289.92L38.31 312.2L54.31 347.34L68.64 373.82C68.64 373.82 102.16 429.08 56.1 497.47Z" fill="#8E681C"/>
        <path d="M52.91 501.85C52.6281 501.853 52.3511 501.776 52.1112 501.628C51.8713 501.48 51.6784 501.267 51.5548 501.013C51.4312 500.76 51.3821 500.476 51.4131 500.196C51.4441 499.916 51.554 499.65 51.73 499.43C52 499.07 80 463 78.26 418.12C77.26 392.36 67.92 375.6 57.07 356.19C49.39 342.45 40.68 326.87 33.82 305.83C30.1826 294.63 28.9357 282.792 30.16 271.08C30.2157 270.682 30.4271 270.323 30.7478 270.081C31.0685 269.839 31.4722 269.734 31.87 269.79C32.2678 269.846 32.6272 270.057 32.8691 270.378C33.1111 270.699 33.2157 271.102 33.16 271.5C32.0435 282.758 33.2484 294.126 36.7 304.9C43.47 325.67 52.1 341.1 59.7 354.72C70.7 374.47 80.28 391.53 81.28 418.01C83.02 464.01 54.4 500.92 54.11 501.28C53.9672 501.461 53.7846 501.606 53.5765 501.705C53.3684 501.804 53.1404 501.854 52.91 501.85V501.85Z" fill="black"/>
        <path d="M4.39 378.89C4.19346 378.886 3.99963 378.843 3.81968 378.764C3.63973 378.685 3.47721 378.571 3.3415 378.429C3.20579 378.287 3.09956 378.119 3.02893 377.936C2.95831 377.752 2.92469 377.556 2.93 377.36C2.93 376.52 3.52 356.59 15.19 347.55C15.3426 347.405 15.5241 347.293 15.7227 347.222C15.9213 347.152 16.1326 347.124 16.3427 347.14C16.5528 347.157 16.7571 347.218 16.9422 347.318C17.1274 347.419 17.2892 347.558 17.4171 347.725C17.545 347.893 17.6362 348.085 17.6847 348.291C17.7332 348.496 17.738 348.709 17.6986 348.916C17.6593 349.123 17.5767 349.319 17.4563 349.492C17.336 349.665 17.1805 349.811 17 349.92C6.46 358.08 5.9 377.23 5.89 377.43C5.87958 377.821 5.71695 378.192 5.43677 378.465C5.15659 378.738 4.78099 378.89 4.39 378.89Z" fill="black"/>
        <path d="M11.83 427C11.4719 427.002 11.1252 426.874 10.8534 426.641C10.5816 426.408 10.4029 426.084 10.35 425.73C9.63677 419.018 10.475 412.231 12.8001 405.894C15.1251 399.557 18.8749 393.838 23.76 389.18C23.8988 389.028 24.0676 388.905 24.2557 388.821C24.4438 388.737 24.6473 388.692 24.8535 388.69C25.0597 388.688 25.264 388.728 25.4539 388.809C25.6437 388.889 25.815 389.008 25.9569 389.157C26.0989 389.307 26.2084 389.484 26.2789 389.678C26.3493 389.871 26.379 390.078 26.3661 390.283C26.3533 390.489 26.2981 390.69 26.2042 390.874C26.1102 391.057 25.9794 391.219 25.82 391.35C10.55 405.81 13.28 425.09 13.31 425.28C13.3704 425.675 13.2716 426.078 13.0354 426.4C12.7993 426.723 12.4449 426.938 12.05 427H11.83Z" fill="black"/>
        <path d="M33 475.25C32.6698 475.25 32.3488 475.142 32.0866 474.941C31.8245 474.74 31.6358 474.459 31.55 474.14C31.33 473.31 26.31 453.85 35.93 441.61C36.1797 441.31 36.5363 441.12 36.9243 441.078C37.3122 441.037 37.7009 441.149 38.008 441.389C38.315 441.63 38.5162 441.981 38.5689 442.368C38.6215 442.754 38.5215 443.146 38.29 443.46C29.58 454.54 34.4 473.18 34.45 473.37C34.5508 473.753 34.496 474.161 34.2974 474.504C34.0988 474.846 33.7726 475.097 33.39 475.2C33.2623 475.231 33.1315 475.248 33 475.25V475.25Z" fill="black"/>
        <path d="M59.88 490.23C59.88 490.23 30.51 473.75 36.94 443.23L32.54 453.85V471.51L41.37 485.87L53.49 500.54L59.88 490.23Z" fill="#4F3810"/>
    </g>

    <g opacity="1" id="OwlDeadRightWing">
        <path d="M306.82 500.36C306.82 500.36 278.23 464.09 279.97 418.06C281.65 373.41 308.06 355.72 324.48 305.37C328.028 294.382 329.253 282.777 328.08 271.29C328.08 271.29 404 390.8 306.82 500.36Z" fill="#725514"/>
        <path d="M299.85 489.52C299.85 489.52 331.85 479.41 323.36 443.04L327.77 453.67V471.32L318.94 485.69L306.82 500.36L299.85 489.52Z" fill="#4F3810"/>
        <path d="M327.77 451.19C336.895 442.597 342.282 430.765 342.77 418.24C343.33 404.34 340.77 395.65 340.77 395.65L346.57 409.1L349.08 419.87L341.91 445.87L327.8 471.29L327.77 451.19Z" fill="#4F3810"/>
        <path d="M342.16 398.88C342.16 398.88 349.84 387.44 347.25 366.33C345.63 353.16 344 348.65 344 348.65C344 348.65 351 352.15 354.5 368.21L355.62 376.14L353.62 399.78L348.67 418.69L345.35 403.91L342.16 398.88Z" fill="#4F3810"/>
        <path d="M347.29 351.61C347.29 351.61 346.67 307.8 328.89 277.55C328.52 274.72 330 273.95 327.8 269.05L336.87 285.28L348.77 317.89L354 345L356 366.35L351.41 356.61L347.29 351.61Z" fill="#4F3810"/>
        <path d="M304.21 497.3C300.105 488.146 296.958 478.592 294.82 468.79C288.64 439.31 288.96 422.21 291.73 406.31C296.49 379 316 356.39 324.3 324C330.5 299.86 327.77 289.75 327.77 289.75L322 312L306 347.13L291.66 373.62C291.66 373.62 258.15 428.91 304.21 497.3Z" fill="#8E681C"/>
        <path d="M306.82 501.85C306.593 501.852 306.368 501.802 306.163 501.703C305.959 501.604 305.78 501.459 305.64 501.28C305.35 500.92 276.73 464.05 278.47 418.01C279.47 391.53 289 374.47 300.04 354.72C307.66 341.1 316.29 325.67 323.04 304.9C326.492 294.126 327.696 282.758 326.58 271.5C326.524 271.102 326.629 270.699 326.871 270.378C327.113 270.057 327.472 269.846 327.87 269.79C328.268 269.734 328.671 269.839 328.992 270.081C329.313 270.323 329.524 270.682 329.58 271.08C330.798 282.792 329.552 294.629 325.92 305.83C319.06 326.83 310.35 342.45 302.67 356.19C291.82 375.6 282.45 392.36 281.47 418.12C279.77 463 307.71 499.07 308 499.43C308.122 499.584 308.213 499.761 308.266 499.95C308.32 500.139 308.335 500.337 308.312 500.532C308.289 500.727 308.227 500.916 308.131 501.087C308.034 501.258 307.905 501.409 307.75 501.53C307.487 501.742 307.158 501.855 306.82 501.85V501.85Z" fill="black"/>
        <path d="M355.68 378.8C355.289 378.8 354.913 378.648 354.633 378.375C354.353 378.102 354.19 377.731 354.18 377.34C354.18 377.15 353.61 357.99 343.08 349.83C342.924 349.709 342.794 349.559 342.697 349.388C342.599 349.217 342.536 349.028 342.512 348.832C342.462 348.438 342.571 348.039 342.815 347.725C343.059 347.411 343.418 347.206 343.813 347.157C344.207 347.107 344.606 347.216 344.92 347.46C356.59 356.46 357.16 376.46 357.18 377.27C357.188 377.666 357.039 378.049 356.766 378.336C356.492 378.623 356.116 378.79 355.72 378.8H355.68Z" fill="black"/>
        <path d="M348.25 426.94H348C347.608 426.878 347.256 426.664 347.022 426.343C346.787 426.023 346.69 425.622 346.75 425.23C346.75 425.04 349.46 405.73 334.24 391.31C334.092 391.176 333.972 391.014 333.888 390.833C333.803 390.652 333.756 390.456 333.748 390.257C333.74 390.057 333.773 389.858 333.843 389.671C333.913 389.484 334.02 389.313 334.157 389.168C334.294 389.023 334.459 388.907 334.641 388.826C334.824 388.745 335.021 388.702 335.22 388.699C335.42 388.695 335.618 388.731 335.804 388.805C335.989 388.88 336.158 388.99 336.3 389.13C341.183 393.79 344.932 399.508 347.257 405.845C349.582 412.182 350.421 418.968 349.71 425.68C349.655 426.029 349.479 426.347 349.211 426.578C348.944 426.809 348.603 426.937 348.25 426.94V426.94Z" fill="black"/>
        <path d="M327 475.16C326.868 475.163 326.737 475.146 326.61 475.11C326.42 475.06 326.241 474.973 326.085 474.854C325.929 474.735 325.798 474.586 325.699 474.416C325.6 474.246 325.537 474.058 325.511 473.863C325.485 473.668 325.499 473.47 325.55 473.28C325.6 473.09 330.4 454.43 321.7 443.37C321.469 443.056 321.368 442.664 321.421 442.278C321.474 441.891 321.675 441.54 321.982 441.299C322.289 441.059 322.678 440.947 323.066 440.988C323.454 441.03 323.81 441.22 324.06 441.52C333.69 453.76 328.66 473.23 328.44 474.05C328.358 474.369 328.171 474.651 327.911 474.852C327.65 475.053 327.329 475.162 327 475.16V475.16Z" fill="black"/>
    </g>

    <g opacity="1" id="OwlDeadFoot">
        <path d="M177.48 558.22V575.97L145.09 554.55L177.48 558.22Z" fill="#33230A"/>
        <path d="M177.48 575.97L208.69 556.04L183.27 559.18L177.48 558.22V575.97Z" fill="#33230A"/>
        <path d="M138.47 553L130.07 566L131.87 572.16L135.35 574.43L135.59 583.91L139.42 588.67L147.11 590.35L148.42 599.91L154.79 600.09C154.79 600.09 172.34 597.81 177.48 575.97L180.92 588.85C180.92 588.85 191.6 603.74 206 600.79C206 600.79 208.9 600.93 207.31 590.35C207.31 590.35 215.46 592.22 217.61 586.79C219.76 581.36 217.05 575.59 217.05 575.59C217.05 575.59 226.21 575.93 223.17 565.26L215.44 554.55L206.56 556.46L177.9 574.82L175.46 574.44L143 554.08L138.47 553Z" fill="#A0752A"/>
        <path d="M128.77 557.18C128.77 557.18 121.89 571.29 134.12 574.53L131.12 562.61L136.18 558.24L128.77 557.18Z" fill="#4F3810"/>
        <path d="M225.7 558.8C225.7 558.8 231.51 568.15 223.11 573.8C224.97 566.62 221.18 559.66 221.18 559.66L225.7 558.8Z" fill="#4F3810"/>
        <path d="M177.08 577.29C176.784 577.292 176.495 577.205 176.25 577.04L144.25 555.8C144.086 555.691 143.945 555.551 143.835 555.387C143.725 555.224 143.648 555.04 143.609 554.847C143.57 554.654 143.57 554.455 143.608 554.262C143.645 554.068 143.721 553.884 143.83 553.72C143.939 553.556 144.079 553.415 144.243 553.305C144.406 553.195 144.59 553.118 144.783 553.079C144.976 553.04 145.175 553.04 145.368 553.078C145.562 553.115 145.746 553.191 145.91 553.3L175.58 573V558.22C175.58 557.822 175.738 557.441 176.019 557.159C176.301 556.878 176.682 556.72 177.08 556.72C177.478 556.72 177.859 556.878 178.141 557.159C178.422 557.441 178.58 557.822 178.58 558.22V575.79C178.582 576.061 178.509 576.328 178.37 576.561C178.231 576.794 178.03 576.984 177.79 577.11C177.572 577.228 177.328 577.29 177.08 577.29Z" fill="black"/>
        <path d="M177.08 577.29C176.883 577.291 176.687 577.253 176.504 577.179C176.322 577.104 176.156 576.993 176.016 576.854C175.877 576.714 175.766 576.548 175.691 576.366C175.617 576.183 175.579 575.987 175.58 575.79V559.22C175.58 558.822 175.738 558.441 176.019 558.159C176.301 557.878 176.682 557.72 177.08 557.72C177.478 557.72 177.859 557.878 178.141 558.159C178.422 558.441 178.58 558.822 178.58 559.22V573.09L208.52 554.38C208.856 554.191 209.252 554.139 209.626 554.234C209.999 554.33 210.322 554.565 210.526 554.892C210.731 555.219 210.801 555.612 210.724 555.989C210.647 556.367 210.427 556.7 210.11 556.92L177.88 577.06C177.641 577.213 177.363 577.293 177.08 577.29Z" fill="black"/>
        <path d="M150.11 602.29C149.741 602.294 149.383 602.159 149.11 601.91C149.02 601.84 140.5 594.1 148.9 580.82C151.76 576.3 154.44 572.59 162.95 565.82C163.103 565.687 163.282 565.587 163.474 565.525C163.667 565.463 163.871 565.441 164.073 565.46C164.274 565.479 164.47 565.539 164.648 565.635C164.826 565.732 164.983 565.864 165.109 566.023C165.234 566.181 165.327 566.364 165.38 566.56C165.433 566.755 165.446 566.959 165.418 567.16C165.39 567.361 165.322 567.554 165.217 567.727C165.113 567.901 164.974 568.051 164.81 568.17C156.66 574.62 154.22 577.98 151.44 582.38C145.44 591.91 149.32 597.65 150.69 599.21C173.69 597.4 175.51 576.54 175.58 575.65C175.608 575.252 175.793 574.882 176.094 574.62C176.395 574.358 176.787 574.227 177.185 574.255C177.583 574.283 177.953 574.468 178.215 574.769C178.477 575.07 178.608 575.462 178.58 575.86C178.58 576.11 176.49 600.64 150.2 602.24L150.11 602.29Z" fill="black"/>
        <path d="M204.45 602.79H204.36C178.06 601.18 176 576.65 175.98 576.41C175.966 576.213 175.99 576.015 176.052 575.828C176.114 575.64 176.212 575.467 176.342 575.317C176.471 575.168 176.628 575.045 176.804 574.956C176.981 574.868 177.173 574.814 177.37 574.8C177.567 574.786 177.765 574.81 177.952 574.872C178.14 574.934 178.313 575.032 178.463 575.162C178.612 575.291 178.735 575.448 178.824 575.624C178.912 575.801 178.966 575.993 178.98 576.19C179.05 577.11 180.89 597.95 203.87 599.75C205.23 598.2 209.16 592.46 203.12 582.93C200.34 578.53 197.9 575.16 189.75 568.71C189.586 568.591 189.447 568.441 189.343 568.267C189.238 568.094 189.17 567.901 189.142 567.7C189.114 567.499 189.127 567.295 189.18 567.1C189.233 566.904 189.326 566.721 189.451 566.563C189.577 566.404 189.734 566.272 189.912 566.175C190.09 566.079 190.286 566.019 190.487 566C190.689 565.981 190.893 566.003 191.086 566.065C191.278 566.127 191.457 566.227 191.61 566.36C200.12 573.09 202.8 576.81 205.66 581.36C214.06 594.64 205.54 602.36 205.45 602.45C205.169 602.681 204.814 602.802 204.45 602.79V602.79Z" fill="black"/>
        <path d="M144.09 591.08C142.562 591.071 141.054 590.739 139.663 590.107C138.272 589.474 137.031 588.555 136.02 587.41L135.94 587.31C127.09 574.31 148.82 557.74 149.75 557.04C149.908 556.922 150.087 556.836 150.278 556.787C150.469 556.738 150.667 556.727 150.862 556.755C151.057 556.783 151.245 556.849 151.414 556.949C151.584 557.05 151.732 557.182 151.85 557.34C151.968 557.498 152.054 557.677 152.103 557.868C152.152 558.059 152.163 558.257 152.135 558.452C152.107 558.647 152.041 558.835 151.941 559.004C151.84 559.174 151.708 559.322 151.55 559.44C151.35 559.59 131.25 574.88 138.38 585.56C139.401 586.661 140.714 587.449 142.166 587.832C143.618 588.214 145.149 588.175 146.58 587.72C146.773 587.652 146.978 587.624 147.182 587.639C147.386 587.653 147.585 587.709 147.767 587.803C147.949 587.897 148.109 588.027 148.239 588.186C148.369 588.344 148.464 588.527 148.52 588.724C148.576 588.921 148.592 589.127 148.565 589.33C148.538 589.533 148.47 589.728 148.365 589.904C148.26 590.08 148.121 590.232 147.955 590.352C147.789 590.472 147.6 590.556 147.4 590.6C146.324 590.914 145.21 591.075 144.09 591.08V591.08Z" fill="black"/>
        <path d="M210.81 592.56C209.628 592.552 208.453 592.377 207.32 592.04C207.12 591.996 206.931 591.912 206.765 591.792C206.599 591.672 206.46 591.52 206.355 591.344C206.25 591.168 206.182 590.973 206.155 590.77C206.129 590.567 206.144 590.361 206.2 590.164C206.256 589.967 206.351 589.784 206.481 589.626C206.611 589.467 206.771 589.337 206.953 589.243C207.135 589.149 207.334 589.093 207.538 589.079C207.742 589.064 207.947 589.092 208.14 589.16C213.23 590.62 215.72 587.56 215.82 587.43C223.03 576.81 202.82 561.48 202.64 561.33C202.322 561.091 202.111 560.736 202.055 560.342C201.999 559.948 202.101 559.548 202.34 559.23C202.579 558.912 202.934 558.701 203.328 558.645C203.722 558.589 204.122 558.691 204.44 558.93C205.37 559.63 227.09 576.16 218.24 589.19C217.331 590.27 216.192 591.133 214.907 591.716C213.621 592.299 212.221 592.588 210.81 592.56Z" fill="black"/>
        <path d="M136.61 576.31C136.497 576.32 136.383 576.32 136.27 576.31C134.379 575.901 132.645 574.961 131.27 573.6C123.89 565.11 137.8 552.66 138.4 552.14C138.547 552.009 138.719 551.908 138.905 551.843C139.091 551.778 139.288 551.75 139.485 551.761C139.682 551.772 139.874 551.822 140.052 551.908C140.23 551.993 140.389 552.113 140.52 552.26C140.651 552.407 140.752 552.579 140.817 552.765C140.882 552.951 140.91 553.148 140.899 553.345C140.888 553.542 140.838 553.734 140.752 553.912C140.667 554.09 140.547 554.249 140.4 554.38C140.28 554.49 128.11 565.38 133.53 571.61C134.488 572.491 135.66 573.105 136.93 573.39C137.295 573.464 137.619 573.672 137.839 573.973C138.058 574.274 138.157 574.646 138.115 575.016C138.074 575.386 137.895 575.727 137.615 575.972C137.334 576.217 136.972 576.349 136.6 576.34L136.61 576.31Z" fill="black"/>
        <path d="M217.91 577.46C217.713 577.482 217.514 577.466 217.323 577.411C217.132 577.356 216.955 577.264 216.8 577.141C216.644 577.017 216.515 576.865 216.419 576.691C216.323 576.518 216.262 576.327 216.24 576.13C216.218 575.933 216.234 575.734 216.289 575.543C216.344 575.352 216.436 575.175 216.559 575.02C216.683 574.864 216.835 574.735 217.009 574.639C217.182 574.543 217.373 574.482 217.57 574.46C218.847 574.183 220.03 573.576 221 572.7C226.39 566.48 214.57 555.65 214.45 555.54C214.195 555.265 214.052 554.905 214.049 554.531C214.047 554.156 214.184 553.794 214.435 553.516C214.686 553.237 215.032 553.063 215.405 553.027C215.777 552.99 216.15 553.095 216.45 553.32C217.02 553.84 230.55 566.24 223.21 574.7C221.834 576.061 220.1 577.004 218.21 577.42C218.112 577.444 218.011 577.458 217.91 577.46V577.46Z" fill="black"/>
        <path d="M151.71 593.56C152.119 593.81 152.463 594.153 152.715 594.561C152.967 594.969 153.12 595.431 153.161 595.909C153.202 596.387 153.13 596.867 152.951 597.312C152.772 597.757 152.491 598.154 152.13 598.47C151.81 598.76 151.51 599.071 151.23 599.4C149.7 601.2 149.23 603.55 149.97 606.72C148.865 605.954 147.971 604.923 147.37 603.72C146.653 602.308 146.287 600.743 146.302 599.159C146.318 597.575 146.715 596.018 147.46 594.62C147.655 594.259 147.921 593.942 148.243 593.688C148.565 593.434 148.936 593.249 149.332 593.144C149.729 593.039 150.143 593.017 150.548 593.078C150.954 593.139 151.342 593.283 151.69 593.5L151.71 593.56Z" fill="black"/>
        <path d="M140.45 581.39C140.859 581.64 141.203 581.984 141.455 582.392C141.707 582.8 141.86 583.261 141.901 583.739C141.942 584.217 141.87 584.697 141.691 585.142C141.512 585.587 141.231 585.984 140.87 586.3C140.55 586.59 140.25 586.901 139.97 587.23C138.43 589.03 137.97 591.38 138.71 594.55C137.611 593.798 136.718 592.784 136.11 591.6C135.39 590.188 135.023 588.623 135.039 587.039C135.054 585.454 135.453 583.897 136.2 582.5C136.395 582.139 136.661 581.822 136.983 581.568C137.305 581.314 137.676 581.129 138.073 581.024C138.469 580.919 138.883 580.897 139.288 580.958C139.694 581.019 140.082 581.163 140.43 581.38L140.45 581.39Z" fill="black"/>
        <path d="M133.36 567.38C133.668 567.568 133.927 567.825 134.117 568.132C134.306 568.438 134.421 568.785 134.453 569.144C134.484 569.503 134.43 569.865 134.296 570.199C134.162 570.534 133.951 570.832 133.68 571.07C133.438 571.288 133.211 571.522 133 571.77C131.84 573.12 131.5 574.89 132.05 577.28C131.209 576.718 130.521 575.955 130.05 575.06C129.51 573.997 129.235 572.819 129.247 571.626C129.259 570.434 129.559 569.262 130.12 568.21C130.268 567.939 130.47 567.701 130.713 567.511C130.956 567.32 131.236 567.182 131.534 567.103C131.833 567.024 132.144 567.008 132.45 567.053C132.755 567.099 133.048 567.207 133.31 567.37L133.36 567.38Z" fill="black"/>
        <path d="M203.27 593.11C202.861 593.36 202.517 593.703 202.265 594.111C202.013 594.52 201.86 594.981 201.819 595.459C201.778 595.937 201.85 596.417 202.029 596.862C202.208 597.307 202.489 597.704 202.85 598.02C203.15 598.3 203.45 598.61 203.75 598.95C205.29 600.75 205.75 603.1 205.02 606.27C206.113 605.516 207.005 604.507 207.62 603.33C208.338 601.916 208.704 600.349 208.687 598.763C208.669 597.177 208.269 595.618 207.52 594.22C207.325 593.859 207.059 593.542 206.737 593.288C206.415 593.034 206.044 592.849 205.647 592.744C205.251 592.639 204.837 592.617 204.432 592.678C204.026 592.739 203.638 592.883 203.29 593.1L203.27 593.11Z" fill="black"/>
        <path d="M214.53 580.94C214.123 581.192 213.78 581.535 213.529 581.943C213.279 582.351 213.127 582.812 213.086 583.289C213.045 583.767 213.116 584.247 213.294 584.691C213.472 585.136 213.751 585.533 214.11 585.85C214.427 586.143 214.728 586.453 215.01 586.78C216.55 588.58 217.01 590.93 216.28 594.1C217.376 593.349 218.269 592.339 218.88 591.16C219.597 589.746 219.963 588.18 219.948 586.594C219.932 585.008 219.535 583.45 218.79 582.05C218.595 581.688 218.328 581.369 218.006 581.115C217.683 580.86 217.311 580.674 216.913 580.569C216.516 580.464 216.101 580.442 215.694 580.504C215.288 580.566 214.898 580.711 214.55 580.93L214.53 580.94Z" fill="black"/>
        <path d="M221.62 566.93C221.313 567.119 221.055 567.377 220.866 567.684C220.677 567.991 220.563 568.338 220.533 568.697C220.503 569.056 220.557 569.417 220.692 569.751C220.827 570.085 221.039 570.383 221.31 570.62C221.548 570.842 221.772 571.079 221.98 571.33C223.14 572.68 223.49 574.44 222.98 576.83C223.802 576.261 224.472 575.499 224.93 574.61C225.472 573.547 225.749 572.369 225.737 571.176C225.724 569.984 225.424 568.811 224.86 567.76C224.713 567.489 224.512 567.252 224.27 567.061C224.028 566.871 223.749 566.732 223.451 566.654C223.153 566.575 222.843 566.558 222.538 566.604C222.234 566.65 221.942 566.757 221.68 566.92L221.62 566.93Z" fill="black"/>
    </g>

    <g opacity="1" id="OwlDeadGuard">
        <path d="M125.59 389.63C120.89 464.81 182.06 500.29 182.06 500.29C177.62 500.712 173.144 500.54 168.75 499.78C164.758 498.998 160.817 497.973 156.95 496.71C113.58 467.62 113 413.89 113 413.89C114.156 409.514 115.782 405.276 117.85 401.25C119.995 397.104 122.591 393.207 125.59 389.63V389.63Z" fill="#430E6B"/>
        <path d="M239.63 430.3C231.63 490.24 187.63 499.78 187.63 499.78C187.63 499.78 179.72 494.93 176.11 489.44C176.11 489.44 195.73 485.01 209.77 468.05C220 455.66 221.86 440 221.86 440C205.326 433.897 187.23 433.474 170.43 438.8C170.43 438.8 168.65 441.23 169.71 448.65C169.71 448.65 161.07 442.12 159.1 426.35C159.1 426.35 171.3 418.54 199.67 420.08C228.22 421.61 239.63 430.3 239.63 430.3Z" fill="#430E6B"/>
        <path d="M129.06 385.75V399.92C129.06 399.92 152.13 385.12 178.45 385.26C202.12 385.38 216.01 391.11 226.7 398.52C228.76 404.38 225.77 412.07 225.77 412.07C225.77 412.07 232.2 410.12 235.35 404.59C237.49 400.646 238.775 396.294 239.12 391.82C239.12 391.82 224.32 369.91 179.64 369.21C147 368.71 129.06 385.75 129.06 385.75Z" fill="#430E6B"/>
    </g>

    <g opacity="1" id="OwlDeadLeftEye">
        <path d="M106.73 250.74C108.56 249.9 109.73 248.06 110.73 246.36C113.286 242.395 116.278 238.729 119.65 235.43C121.16 233.96 123.04 232.43 125.12 232.75C126.271 232.994 127.334 233.543 128.2 234.34C130.86 236.48 132.76 239.71 135.97 243.52C138.17 246.13 143.89 252.76 148.36 248.36C151.36 245.36 143.94 237.43 141.18 234.27C138.42 231.11 133.71 226.96 133.66 222.92C133.66 219.92 136.13 217.53 137.34 216.19C139.755 213.697 141.974 211.023 143.98 208.19C144.93 206.76 146.23 204.19 142.9 203.81C141.56 203.67 136.98 209 135.9 209.81C132.56 212.56 133.69 212.41 130.71 215.54C128.91 217.45 127.07 219.6 124.51 220.19C123.868 220.37 123.185 220.342 122.56 220.11C122.194 219.911 121.857 219.662 121.56 219.37C117.41 215.78 113.2 212.07 110.46 207.31C109.54 205.7 107.55 204.95 106.4 203.5C105.25 202.05 104.82 199.87 102.97 199.84C101.89 199.84 100.45 197.84 99.82 198.77C99.1444 199.528 98.7154 200.473 98.59 201.48C98.05 204.76 100.59 207.04 101.98 208.69C103.98 211.09 105.72 212.69 107.78 214.96C108.78 216.13 112.18 218.96 112.94 220.3C114.59 223.3 113.5 226.01 110.67 230.35C109.28 232.487 107.7 234.495 105.95 236.35C103.57 238.76 101.73 240.21 99.34 243.51C98.9196 244.111 98.665 244.811 98.6018 245.542C98.5386 246.272 98.6691 247.006 98.98 247.67C99.7 248.922 100.79 249.921 102.1 250.53C102.809 250.904 103.591 251.116 104.392 251.153C105.192 251.189 105.99 251.048 106.73 250.74V250.74Z" fill="#D8D8D8"/>
        <path id="OwlDeadLeftEyeFirst" d="M147.33 249.18C146.536 249.182 145.774 248.869 145.21 248.31L98.65 201.76C98.336 201.491 98.0809 201.16 97.9008 200.788C97.7208 200.416 97.6196 200.01 97.6036 199.597C97.5876 199.184 97.6573 198.772 97.8081 198.387C97.9589 198.002 98.1877 197.652 98.48 197.36C98.7724 197.068 99.1221 196.839 99.507 196.688C99.892 196.537 100.304 196.468 100.717 196.484C101.13 196.5 101.536 196.601 101.908 196.781C102.28 196.961 102.611 197.216 102.88 197.53L149.45 244.07C149.866 244.49 150.148 245.023 150.262 245.603C150.375 246.183 150.315 246.784 150.088 247.33C149.862 247.875 149.479 248.342 148.989 248.671C148.498 249.001 147.921 249.178 147.33 249.18V249.18Z" fill="black"/>
        <path id="OwlDeadLeftEyeSecond" d="M100.76 249.18C100.17 249.176 99.5943 248.997 99.1051 248.667C98.6159 248.337 98.2348 247.87 98.0096 247.325C97.7844 246.78 97.725 246.18 97.8389 245.601C97.9528 245.022 98.235 244.489 98.65 244.07L145.21 197.53C145.781 197.022 146.525 196.752 147.289 196.774C148.054 196.796 148.781 197.109 149.322 197.649C149.863 198.189 150.178 198.915 150.201 199.679C150.225 200.443 149.957 201.187 149.45 201.76L102.88 248.31C102.316 248.869 101.554 249.182 100.76 249.18V249.18Z" fill="black"/>
    </g>

    <g opacity="1" id="OwlDeadRightEye">
        <path d="M257.4 249.38C255.56 248.55 254.4 246.71 253.4 245.01C250.837 241.047 247.842 237.382 244.47 234.08C242.96 232.61 241.09 231.08 239 231.4C237.849 231.644 236.786 232.193 235.92 232.99C233.26 235.13 231.37 238.36 228.15 242.17C225.95 244.78 220.23 251.41 215.76 247.01C212.76 244.06 220.18 236.08 222.95 232.92C225.72 229.76 230.42 225.61 230.46 221.57C230.46 218.57 227.99 216.18 226.79 214.84C224.37 212.349 222.146 209.675 220.14 206.84C219.14 205.41 217.89 202.84 221.23 202.46C222.56 202.32 227.15 207.65 228.18 208.46C231.53 211.2 230.39 211.05 233.37 214.19C235.17 216.1 237.01 218.25 239.57 218.84C240.212 219.02 240.895 218.992 241.52 218.76C241.902 218.562 242.255 218.313 242.57 218.02C246.72 214.43 250.93 210.72 253.66 205.96C254.59 204.35 256.57 203.6 257.72 202.15C258.87 200.7 259.3 198.52 261.15 198.49C262.23 198.49 263.68 196.54 264.3 197.42C264.975 198.179 265.407 199.123 265.54 200.13C266.07 203.41 263.54 205.69 262.15 207.34C260.15 209.74 258.4 211.34 256.34 213.61C255.29 214.78 251.94 217.61 251.19 218.95C249.53 221.95 250.62 224.66 253.45 229C254.844 231.138 256.427 233.146 258.18 235C260.55 237.41 262.39 238.86 264.78 242.16C265.2 242.761 265.455 243.461 265.518 244.192C265.581 244.922 265.451 245.656 265.14 246.32C264.428 247.575 263.34 248.575 262.03 249.18C261.321 249.554 260.538 249.766 259.737 249.801C258.937 249.835 258.138 249.692 257.4 249.38V249.38Z" fill="#D8D8D8"/>
        <path id="OwlDeadRightEyeFirst" d="M263.57 248.12C262.775 248.119 262.012 247.803 261.45 247.24L214.88 200.7C214.585 200.425 214.349 200.094 214.185 199.726C214.021 199.358 213.933 198.961 213.926 198.558C213.919 198.155 213.993 197.755 214.144 197.382C214.294 197.008 214.519 196.669 214.804 196.384C215.089 196.099 215.428 195.874 215.802 195.724C216.175 195.573 216.575 195.499 216.978 195.506C217.381 195.513 217.778 195.601 218.146 195.765C218.514 195.929 218.845 196.165 219.12 196.46L265.69 243C266.109 243.42 266.394 243.954 266.51 244.535C266.625 245.117 266.566 245.72 266.339 246.268C266.112 246.816 265.728 247.284 265.235 247.614C264.742 247.943 264.163 248.119 263.57 248.12Z" fill="black"/>
        <path id="OwlDeadRightEyeSecond" d="M217 248.12C216.407 248.119 215.828 247.943 215.335 247.614C214.842 247.284 214.458 246.816 214.231 246.268C214.004 245.72 213.945 245.117 214.06 244.535C214.176 243.954 214.461 243.42 214.88 243L261.45 196.46C261.725 196.165 262.056 195.929 262.424 195.765C262.792 195.601 263.189 195.513 263.592 195.506C263.995 195.499 264.395 195.573 264.768 195.724C265.142 195.874 265.481 196.099 265.766 196.384C266.051 196.669 266.276 197.008 266.426 197.382C266.577 197.755 266.651 198.155 266.644 198.558C266.637 198.961 266.549 199.358 266.385 199.726C266.221 200.094 265.985 200.425 265.69 200.7L219.12 247.24C218.558 247.803 217.795 248.119 217 248.12Z" fill="black"/>
    </g>
</svg>